<svg width="120" height="120" viewBox="0 0 120 120" fill="none" xmlns="http://www.w3.org/2000/svg">
<path fill-rule="evenodd" clip-rule="evenodd" d="M102 17.5V18.5C102 19.3284 102.672 20 103.5 20H116.5C117.328 20 118 19.3284 118 18.5V9.5C118 8.67157 117.328 8 116.5 8H115.5V14.5C115.5 16.1569 114.157 17.5 112.5 17.5H102Z" fill="white"/>
<rect x="99" y="5" width="14" height="10" fill="black" fill-opacity="0.2"/>
<path fill-rule="evenodd" clip-rule="evenodd" d="M112.5 2.5H99.5C97.8431 2.5 96.5 3.84315 96.5 5.5V14.5C96.5 16.1569 97.8431 17.5 99.5 17.5H100.5V18.5C100.5 20.1569 101.843 21.5 103.5 21.5H116.5C118.157 21.5 119.5 20.1569 119.5 18.5V9.5C119.5 7.84315 118.157 6.5 116.5 6.5H115.5V5.5C115.5 3.84315 114.157 2.5 112.5 2.5ZM114 8V6.5V5.5C114 4.67157 113.328 4 112.5 4H99.5C98.6716 4 98 4.67157 98 5.5V14.5C98 15.3284 98.6716 16 99.5 16H100.5H102H112.5C113.328 16 114 15.3284 114 14.5V8ZM102 17.5H112.5C114.157 17.5 115.5 16.1569 115.5 14.5V8H116.5C117.328 8 118 8.67157 118 9.5V18.5C118 19.3284 117.328 20 116.5 20H103.5C102.672 20 102 19.3284 102 18.5V17.5Z" fill="black" fill-opacity="0.1"/>
<path fill-rule="evenodd" clip-rule="evenodd" d="M99.5 4C98.6716 4 98 4.67157 98 5.5V14.5C98 15.3284 98.6716 16 99.5 16H112.5C113.328 16 114 15.3284 114 14.5V5.5C114 4.67157 113.328 4 112.5 4H99.5ZM102.549 12.6C103.208 12.6 103.78 12.3468 104.099 11.7535H104.121L104.222 12.477H105.077V9.59742H102.824V10.5163H103.911V10.538C103.903 11.0806 103.447 11.5943 102.687 11.5943C101.803 11.5943 101.253 10.8419 101.253 9.80724C101.253 8.79432 101.716 8.02015 102.672 8.02015C103.288 8.02015 103.628 8.35297 103.759 8.7509H104.99C104.794 7.72351 103.998 7 102.636 7C101.926 7 101.369 7.20982 100.934 7.57881C100.333 8.08527 100 8.88837 100 9.80724C100 10.632 100.246 11.3411 100.717 11.8475C101.159 12.3178 101.781 12.6 102.549 12.6ZM105.889 12.477H107.127V7.09406H105.889V12.477ZM111.551 9.31525V10.3209H109.277V12.477H108.046V7.09406H112V8.14315H109.277V9.31525H111.551Z" fill="white"/>
<rect x="75" y="5" width="14" height="10" fill="black" fill-opacity="0.2"/>
<path fill-rule="evenodd" clip-rule="evenodd" d="M78 17.5V18.5C78 19.3284 78.6716 20 79.5 20H92.5C93.3284 20 94 19.3284 94 18.5V9.5C94 8.67157 93.3284 8 92.5 8H91.5V14.5C91.5 16.1569 90.1569 17.5 88.5 17.5H78Z" fill="white"/>
<path fill-rule="evenodd" clip-rule="evenodd" d="M88.5 2.5H75.5C73.8431 2.5 72.5 3.84315 72.5 5.5V14.5C72.5 16.1569 73.8431 17.5 75.5 17.5H76.5V18.5C76.5 20.1569 77.8431 21.5 79.5 21.5H92.5C94.1569 21.5 95.5 20.1569 95.5 18.5V9.5C95.5 7.84315 94.1569 6.5 92.5 6.5H91.5V5.5C91.5 3.84315 90.1569 2.5 88.5 2.5ZM90 8V6.5V5.5C90 4.67157 89.3284 4 88.5 4H75.5C74.6716 4 74 4.67157 74 5.5V14.5C74 15.3284 74.6716 16 75.5 16H76.5H78H88.5C89.3284 16 90 15.3284 90 14.5V8ZM78 17.5H88.5C90.1569 17.5 91.5 16.1569 91.5 14.5V8H92.5C93.3284 8 94 8.67157 94 9.5V18.5C94 19.3284 93.3284 20 92.5 20H79.5C78.6716 20 78 19.3284 78 18.5V17.5Z" fill="black" fill-opacity="0.1"/>
<path fill-rule="evenodd" clip-rule="evenodd" d="M75.5 4C74.6716 4 74 4.67157 74 5.5V14.5C74 15.3284 74.6716 16 75.5 16H88.5C89.3284 16 90 15.3284 90 14.5V5.5C90 4.67157 89.3284 4 88.5 4H75.5ZM83.0035 6H76.9964C76.446 6 76 6.44597 76 6.99644V13.0035C76 13.554 76.446 14 76.9964 14H83.0035C83.554 14 84 13.554 84 13.0035V6.99644C84 6.44597 83.554 6 83.0035 6ZM85.2764 8.36181C85.107 8.44651 85 8.61964 85 8.80902V11.1908C85 11.3802 85.107 11.5533 85.2764 11.638L87.2762 12.6379C87.6086 12.8041 87.9998 12.5624 87.9998 12.1907V7.80912C87.9998 7.43743 87.6086 7.19568 87.2762 7.36191L85.2764 8.36181Z" fill="white"/>
<rect x="31" y="5" width="14" height="10" fill="black" fill-opacity="0.2"/>
<path fill-rule="evenodd" clip-rule="evenodd" d="M31.5 2.5H44.5C46.1569 2.5 47.5 3.84315 47.5 5.5V14.5C47.5 16.1569 46.1569 17.5 44.5 17.5H31.5C29.8431 17.5 28.5 16.1569 28.5 14.5V5.5C28.5 3.84315 29.8431 2.5 31.5 2.5ZM31.5 4C30.6716 4 30 4.67157 30 5.5V14.5C30 15.3284 30.6716 16 31.5 16H44.5C45.3284 16 46 15.3284 46 14.5V5.5C46 4.67157 45.3284 4 44.5 4H31.5Z" fill="black" fill-opacity="0.1"/>
<path fill-rule="evenodd" clip-rule="evenodd" d="M31.5 4C30.6716 4 30 4.67157 30 5.5V14.5C30 15.3284 30.6716 16 31.5 16H44.5C45.3284 16 46 15.3284 46 14.5V5.5C46 4.67157 45.3284 4 44.5 4H31.5ZM34.5491 12.6C35.2081 12.6 35.7803 12.3468 36.0989 11.7535H36.1206L36.222 12.477H37.0765V9.59742H34.8243V10.5163H35.9106V10.538C35.9034 11.0806 35.4471 11.5943 34.6867 11.5943C33.8032 11.5943 33.2528 10.8419 33.2528 9.80724C33.2528 8.79432 33.7163 8.02015 34.6722 8.02015C35.2878 8.02015 35.6282 8.35297 35.7585 8.7509H36.9896C36.7941 7.72351 35.9975 7 34.636 7C33.9263 7 33.3687 7.20982 32.9342 7.57881C32.3331 8.08527 32 8.88837 32 9.80724C32 10.632 32.2462 11.3411 32.7169 11.8475C33.1587 12.3178 33.7815 12.6 34.5491 12.6ZM37.8889 12.477H39.1273V7.09406H37.8889V12.477ZM43.551 9.31525V10.3209H41.2771V12.477H40.0459V7.09406H44V8.14315H41.2771V9.31525H43.551Z" fill="white"/>
<rect x="7" y="5" width="14" height="10" fill="black" fill-opacity="0.2"/>
<path fill-rule="evenodd" clip-rule="evenodd" d="M7.5 2.5H20.5C22.1569 2.5 23.5 3.84315 23.5 5.5V14.5C23.5 16.1569 22.1569 17.5 20.5 17.5H7.5C5.84315 17.5 4.5 16.1569 4.5 14.5V5.5C4.5 3.84315 5.84315 2.5 7.5 2.5ZM7.5 4C6.67157 4 6 4.67157 6 5.5V14.5C6 15.3284 6.67157 16 7.5 16H20.5C21.3284 16 22 15.3284 22 14.5V5.5C22 4.67157 21.3284 4 20.5 4H7.5Z" fill="black" fill-opacity="0.1"/>
<path fill-rule="evenodd" clip-rule="evenodd" d="M7.5 4C6.67157 4 6 4.67157 6 5.5V14.5C6 15.3284 6.67157 16 7.5 16H20.5C21.3284 16 22 15.3284 22 14.5V5.5C22 4.67157 21.3284 4 20.5 4H7.5ZM15.0035 6H8.99644C8.44597 6 8 6.44597 8 6.99644V13.0035C8 13.554 8.44597 14 8.99644 14H15.0035C15.554 14 16 13.554 16 13.0035V6.99644C16 6.44597 15.554 6 15.0035 6ZM17.2764 8.36181C17.107 8.44651 17 8.61964 17 8.80902V11.1908C17 11.3802 17.107 11.5533 17.2764 11.638L19.2762 12.6379C19.6086 12.8041 19.9998 12.5624 19.9998 12.1907V7.80912C19.9998 7.43743 19.6086 7.19568 19.2762 7.36191L17.2764 8.36181Z" fill="white"/>
<path fill-rule="evenodd" clip-rule="evenodd" d="M54 17.5V18.5C54 19.3284 54.6716 20 55.5 20H68.5C69.3284 20 70 19.3284 70 18.5V9.5C70 8.67157 69.3284 8 68.5 8H67.5V14.5C67.5 16.1569 66.1569 17.5 64.5 17.5H54Z" fill="white"/>
<path fill-rule="evenodd" clip-rule="evenodd" d="M64.5 2.5H51.5C49.8431 2.5 48.5 3.84315 48.5 5.5V14.5C48.5 16.1569 49.8431 17.5 51.5 17.5H52.5V18.5C52.5 20.1569 53.8431 21.5 55.5 21.5H68.5C70.1569 21.5 71.5 20.1569 71.5 18.5V9.5C71.5 7.84315 70.1569 6.5 68.5 6.5H67.5V5.5C67.5 3.84315 66.1569 2.5 64.5 2.5ZM66 8V6.5V5.5C66 4.67157 65.3284 4 64.5 4H51.5C50.6716 4 50 4.67157 50 5.5V14.5C50 15.3284 50.6716 16 51.5 16H52.5H54H64.5C65.3284 16 66 15.3284 66 14.5V8ZM54 17.5H64.5C66.1569 17.5 67.5 16.1569 67.5 14.5V8H68.5C69.3284 8 70 8.67157 70 9.5V18.5C70 19.3284 69.3284 20 68.5 20H55.5C54.6716 20 54 19.3284 54 18.5V17.5Z" fill="black" fill-opacity="0.1"/>
<path d="M50 5.5C50 4.67157 50.6716 4 51.5 4H64.5C65.3284 4 66 4.67157 66 5.5V14.5C66 15.3284 65.3284 16 64.5 16H51.5C50.6716 16 50 15.3284 50 14.5V5.5Z" fill="white"/>
<path fill-rule="evenodd" clip-rule="evenodd" d="M102 41.5V42.5C102 43.3284 102.672 44 103.5 44H116.5C117.328 44 118 43.3284 118 42.5V33.5C118 32.6716 117.328 32 116.5 32H115.5V38.5C115.5 40.1569 114.157 41.5 112.5 41.5H102Z" fill="white"/>
<path fill-rule="evenodd" clip-rule="evenodd" d="M112.5 26.5H99.5C97.8431 26.5 96.5 27.8431 96.5 29.5V38.5C96.5 40.1569 97.8431 41.5 99.5 41.5H100.5V42.5C100.5 44.1569 101.843 45.5 103.5 45.5H116.5C118.157 45.5 119.5 44.1569 119.5 42.5V33.5C119.5 31.8431 118.157 30.5 116.5 30.5H115.5V29.5C115.5 27.8431 114.157 26.5 112.5 26.5ZM114 32V30.5V29.5C114 28.6716 113.328 28 112.5 28H99.5C98.6716 28 98 28.6716 98 29.5V38.5C98 39.3284 98.6716 40 99.5 40H100.5H102H112.5C113.328 40 114 39.3284 114 38.5V32ZM102 41.5H112.5C114.157 41.5 115.5 40.1569 115.5 38.5V32H116.5C117.328 32 118 32.6716 118 33.5V42.5C118 43.3284 117.328 44 116.5 44H103.5C102.672 44 102 43.3284 102 42.5V41.5Z" fill="black" fill-opacity="0.1"/>
<rect x="98" y="29" width="16" height="10" fill="black" fill-opacity="0.2"/>
<path fill-rule="evenodd" clip-rule="evenodd" d="M99.5 28C98.6716 28 98 28.6716 98 29.5V38.5C98 39.3284 98.6716 40 99.5 40H112.5C113.328 40 114 39.3284 114 38.5V29.5C114 28.6716 113.328 28 112.5 28H99.5ZM101 36C102.105 36 103 35.1046 103 34C103 32.8954 102.105 32 101 32C99.8954 32 99 32.8954 99 34C99 35.1046 99.8954 36 101 36Z" fill="white"/>
<path fill-rule="evenodd" clip-rule="evenodd" d="M102 65.5V66.5C102 67.3284 102.672 68 103.5 68H116.5C117.328 68 118 67.3284 118 66.5V57.5C118 56.6716 117.328 56 116.5 56H115.5V62.5C115.5 64.1569 114.157 65.5 112.5 65.5H102Z" fill="white"/>
<path fill-rule="evenodd" clip-rule="evenodd" d="M112.5 50.5H99.5C97.8431 50.5 96.5 51.8431 96.5 53.5V62.5C96.5 64.1569 97.8431 65.5 99.5 65.5H100.5V66.5C100.5 68.1569 101.843 69.5 103.5 69.5H116.5C118.157 69.5 119.5 68.1569 119.5 66.5V57.5C119.5 55.8431 118.157 54.5 116.5 54.5H115.5V53.5C115.5 51.8431 114.157 50.5 112.5 50.5ZM114 56V54.5V53.5C114 52.6716 113.328 52 112.5 52H99.5C98.6716 52 98 52.6716 98 53.5V62.5C98 63.3284 98.6716 64 99.5 64H100.5H102H112.5C113.328 64 114 63.3284 114 62.5V56ZM102 65.5H112.5C114.157 65.5 115.5 64.1569 115.5 62.5V56H116.5C117.328 56 118 56.6716 118 57.5V66.5C118 67.3284 117.328 68 116.5 68H103.5C102.672 68 102 67.3284 102 66.5V65.5Z" fill="black" fill-opacity="0.1"/>
<rect x="98" y="53" width="16" height="10" fill="black" fill-opacity="0.2"/>
<path fill-rule="evenodd" clip-rule="evenodd" d="M98 53.5C98 52.6716 98.6716 52 99.5 52H112.5C113.328 52 114 52.6716 114 53.5V62.5C114 63.3284 113.328 64 112.5 64H99.5C98.6716 64 98 63.3284 98 62.5V53.5ZM103 58C103 59.1046 102.105 60 101 60C99.8954 60 99 59.1046 99 58C99 56.8954 99.8954 56 101 56C102.105 56 103 56.8954 103 58ZM106 60C107.105 60 108 59.1046 108 58C108 56.8954 107.105 56 106 56C104.895 56 104 56.8954 104 58C104 59.1046 104.895 60 106 60Z" fill="white"/>
<path fill-rule="evenodd" clip-rule="evenodd" d="M102 89.5V90.5C102 91.3284 102.672 92 103.5 92H116.5C117.328 92 118 91.3284 118 90.5V81.5C118 80.6716 117.328 80 116.5 80H115.5V86.5C115.5 88.1569 114.157 89.5 112.5 89.5H102Z" fill="white"/>
<path fill-rule="evenodd" clip-rule="evenodd" d="M112.5 74.5H99.5C97.8431 74.5 96.5 75.8431 96.5 77.5V86.5C96.5 88.1569 97.8431 89.5 99.5 89.5H100.5V90.5C100.5 92.1569 101.843 93.5 103.5 93.5H116.5C118.157 93.5 119.5 92.1569 119.5 90.5V81.5C119.5 79.8431 118.157 78.5 116.5 78.5H115.5V77.5C115.5 75.8431 114.157 74.5 112.5 74.5ZM114 80V78.5V77.5C114 76.6716 113.328 76 112.5 76H99.5C98.6716 76 98 76.6716 98 77.5V86.5C98 87.3284 98.6716 88 99.5 88H100.5H102H112.5C113.328 88 114 87.3284 114 86.5V80ZM102 89.5H112.5C114.157 89.5 115.5 88.1569 115.5 86.5V80H116.5C117.328 80 118 80.6716 118 81.5V90.5C118 91.3284 117.328 92 116.5 92H103.5C102.672 92 102 91.3284 102 90.5V89.5Z" fill="black" fill-opacity="0.1"/>
<rect x="98" y="77" width="16" height="10" fill="black" fill-opacity="0.2"/>
<path fill-rule="evenodd" clip-rule="evenodd" d="M99.5 76C98.6716 76 98 76.6716 98 77.5V86.5C98 87.3284 98.6716 88 99.5 88H112.5C113.328 88 114 87.3284 114 86.5V77.5C114 76.6716 113.328 76 112.5 76H99.5ZM101 84C102.105 84 103 83.1046 103 82C103 80.8954 102.105 80 101 80C99.8954 80 99 80.8954 99 82C99 83.1046 99.8954 84 101 84ZM108 82C108 83.1046 107.105 84 106 84C104.895 84 104 83.1046 104 82C104 80.8954 104.895 80 106 80C107.105 80 108 80.8954 108 82ZM111 84C112.105 84 113 83.1046 113 82C113 80.8954 112.105 80 111 80C109.895 80 109 80.8954 109 82C109 83.1046 109.895 84 111 84Z" fill="white"/>
<path fill-rule="evenodd" clip-rule="evenodd" d="M102 113.5V114.5C102 115.328 102.672 116 103.5 116H116.5C117.328 116 118 115.328 118 114.5V105.5C118 104.672 117.328 104 116.5 104H115.5V110.5C115.5 112.157 114.157 113.5 112.5 113.5H102Z" fill="white"/>
<path fill-rule="evenodd" clip-rule="evenodd" d="M112.5 98.5H99.5C97.8431 98.5 96.5 99.8431 96.5 101.5V110.5C96.5 112.157 97.8431 113.5 99.5 113.5H100.5V114.5C100.5 116.157 101.843 117.5 103.5 117.5H116.5C118.157 117.5 119.5 116.157 119.5 114.5V105.5C119.5 103.843 118.157 102.5 116.5 102.5H115.5V101.5C115.5 99.8431 114.157 98.5 112.5 98.5ZM114 104V102.5V101.5C114 100.672 113.328 100 112.5 100H99.5C98.6716 100 98 100.672 98 101.5V110.5C98 111.328 98.6716 112 99.5 112H100.5H102H112.5C113.328 112 114 111.328 114 110.5V104ZM102 113.5H112.5C114.157 113.5 115.5 112.157 115.5 110.5V104H116.5C117.328 104 118 104.672 118 105.5V114.5C118 115.328 117.328 116 116.5 116H103.5C102.672 116 102 115.328 102 114.5V113.5Z" fill="black" fill-opacity="0.1"/>
<rect x="98" y="101" width="16" height="10" fill="black" fill-opacity="0.2"/>
<path d="M98 101.5C98 100.672 98.6716 100 99.5 100H112.5C113.328 100 114 100.672 114 101.5V110.5C114 111.328 113.328 112 112.5 112H99.5C98.6716 112 98 111.328 98 110.5V101.5Z" fill="white"/>
<path fill-rule="evenodd" clip-rule="evenodd" d="M78 41.5V42.5C78 43.3284 78.6716 44 79.5 44H92.5C93.3284 44 94 43.3284 94 42.5V33.5C94 32.6716 93.3284 32 92.5 32H91.5V38.5C91.5 40.1569 90.1569 41.5 88.5 41.5H78Z" fill="white"/>
<path fill-rule="evenodd" clip-rule="evenodd" d="M88.5 26.5H75.5C73.8431 26.5 72.5 27.8431 72.5 29.5V38.5C72.5 40.1569 73.8431 41.5 75.5 41.5H76.5V42.5C76.5 44.1569 77.8431 45.5 79.5 45.5H92.5C94.1569 45.5 95.5 44.1569 95.5 42.5V33.5C95.5 31.8431 94.1569 30.5 92.5 30.5H91.5V29.5C91.5 27.8431 90.1569 26.5 88.5 26.5ZM90 32V30.5V29.5C90 28.6716 89.3284 28 88.5 28H75.5C74.6716 28 74 28.6716 74 29.5V38.5C74 39.3284 74.6716 40 75.5 40H76.5H78H88.5C89.3284 40 90 39.3284 90 38.5V32ZM78 41.5H88.5C90.1569 41.5 91.5 40.1569 91.5 38.5V32H92.5C93.3284 32 94 32.6716 94 33.5V42.5C94 43.3284 93.3284 44 92.5 44H79.5C78.6716 44 78 43.3284 78 42.5V41.5Z" fill="black" fill-opacity="0.1"/>
<rect x="74" y="29" width="16" height="10" fill="black" fill-opacity="0.2"/>
<path fill-rule="evenodd" clip-rule="evenodd" d="M75.5 28C74.6716 28 74 28.6716 74 29.5V38.5C74 39.3284 74.6716 40 75.5 40H88.5C89.3284 40 90 39.3284 90 38.5V29.5C90 28.6716 89.3284 28 88.5 28H75.5ZM77 36C78.1046 36 79 35.1046 79 34C79 32.8954 78.1046 32 77 32C75.8954 32 75 32.8954 75 34C75 35.1046 75.8954 36 77 36Z" fill="white"/>
<path fill-rule="evenodd" clip-rule="evenodd" d="M78 65.5V66.5C78 67.3284 78.6716 68 79.5 68H92.5C93.3284 68 94 67.3284 94 66.5V57.5C94 56.6716 93.3284 56 92.5 56H91.5V62.5C91.5 64.1569 90.1569 65.5 88.5 65.5H78Z" fill="white"/>
<path fill-rule="evenodd" clip-rule="evenodd" d="M88.5 50.5H75.5C73.8431 50.5 72.5 51.8431 72.5 53.5V62.5C72.5 64.1569 73.8431 65.5 75.5 65.5H76.5V66.5C76.5 68.1569 77.8431 69.5 79.5 69.5H92.5C94.1569 69.5 95.5 68.1569 95.5 66.5V57.5C95.5 55.8431 94.1569 54.5 92.5 54.5H91.5V53.5C91.5 51.8431 90.1569 50.5 88.5 50.5ZM90 56V54.5V53.5C90 52.6716 89.3284 52 88.5 52H75.5C74.6716 52 74 52.6716 74 53.5V62.5C74 63.3284 74.6716 64 75.5 64H76.5H78H88.5C89.3284 64 90 63.3284 90 62.5V56ZM78 65.5H88.5C90.1569 65.5 91.5 64.1569 91.5 62.5V56H92.5C93.3284 56 94 56.6716 94 57.5V66.5C94 67.3284 93.3284 68 92.5 68H79.5C78.6716 68 78 67.3284 78 66.5V65.5Z" fill="black" fill-opacity="0.1"/>
<rect x="74" y="53" width="16" height="10" fill="black" fill-opacity="0.2"/>
<path fill-rule="evenodd" clip-rule="evenodd" d="M74 53.5C74 52.6716 74.6716 52 75.5 52H88.5C89.3284 52 90 52.6716 90 53.5V62.5C90 63.3284 89.3284 64 88.5 64H75.5C74.6716 64 74 63.3284 74 62.5V53.5ZM79 58C79 59.1046 78.1046 60 77 60C75.8954 60 75 59.1046 75 58C75 56.8954 75.8954 56 77 56C78.1046 56 79 56.8954 79 58ZM82 60C83.1046 60 84 59.1046 84 58C84 56.8954 83.1046 56 82 56C80.8954 56 80 56.8954 80 58C80 59.1046 80.8954 60 82 60Z" fill="white"/>
<path fill-rule="evenodd" clip-rule="evenodd" d="M78 89.5V90.5C78 91.3284 78.6716 92 79.5 92H92.5C93.3284 92 94 91.3284 94 90.5V81.5C94 80.6716 93.3284 80 92.5 80H91.5V86.5C91.5 88.1569 90.1569 89.5 88.5 89.5H78Z" fill="white"/>
<path fill-rule="evenodd" clip-rule="evenodd" d="M88.5 74.5H75.5C73.8431 74.5 72.5 75.8431 72.5 77.5V86.5C72.5 88.1569 73.8431 89.5 75.5 89.5H76.5V90.5C76.5 92.1569 77.8431 93.5 79.5 93.5H92.5C94.1569 93.5 95.5 92.1569 95.5 90.5V81.5C95.5 79.8431 94.1569 78.5 92.5 78.5H91.5V77.5C91.5 75.8431 90.1569 74.5 88.5 74.5ZM90 80V78.5V77.5C90 76.6716 89.3284 76 88.5 76H75.5C74.6716 76 74 76.6716 74 77.5V86.5C74 87.3284 74.6716 88 75.5 88H76.5H78H88.5C89.3284 88 90 87.3284 90 86.5V80ZM78 89.5H88.5C90.1569 89.5 91.5 88.1569 91.5 86.5V80H92.5C93.3284 80 94 80.6716 94 81.5V90.5C94 91.3284 93.3284 92 92.5 92H79.5C78.6716 92 78 91.3284 78 90.5V89.5Z" fill="black" fill-opacity="0.1"/>
<rect x="74" y="77" width="16" height="10" fill="black" fill-opacity="0.2"/>
<path fill-rule="evenodd" clip-rule="evenodd" d="M75.5 76C74.6716 76 74 76.6716 74 77.5V86.5C74 87.3284 74.6716 88 75.5 88H88.5C89.3284 88 90 87.3284 90 86.5V77.5C90 76.6716 89.3284 76 88.5 76H75.5ZM77 84C78.1046 84 79 83.1046 79 82C79 80.8954 78.1046 80 77 80C75.8954 80 75 80.8954 75 82C75 83.1046 75.8954 84 77 84ZM84 82C84 83.1046 83.1046 84 82 84C80.8954 84 80 83.1046 80 82C80 80.8954 80.8954 80 82 80C83.1046 80 84 80.8954 84 82ZM87 84C88.1046 84 89 83.1046 89 82C89 80.8954 88.1046 80 87 80C85.8954 80 85 80.8954 85 82C85 83.1046 85.8954 84 87 84Z" fill="white"/>
<path fill-rule="evenodd" clip-rule="evenodd" d="M7.5 26.5H20.5C22.1569 26.5 23.5 27.8431 23.5 29.5V38.5C23.5 40.1569 22.1569 41.5 20.5 41.5H7.5C5.84315 41.5 4.5 40.1569 4.5 38.5V29.5C4.5 27.8431 5.84315 26.5 7.5 26.5ZM7.5 28C6.67157 28 6 28.6716 6 29.5V38.5C6 39.3284 6.67157 40 7.5 40H20.5C21.3284 40 22 39.3284 22 38.5V29.5C22 28.6716 21.3284 28 20.5 28H7.5Z" fill="black" fill-opacity="0.1"/>
<rect x="6" y="29" width="16" height="10" fill="black" fill-opacity="0.2"/>
<path fill-rule="evenodd" clip-rule="evenodd" d="M7.5 28C6.67157 28 6 28.6716 6 29.5V38.5C6 39.3284 6.67157 40 7.5 40H20.5C21.3284 40 22 39.3284 22 38.5V29.5C22 28.6716 21.3284 28 20.5 28H7.5ZM9 36C10.1046 36 11 35.1046 11 34C11 32.8954 10.1046 32 9 32C7.89543 32 7 32.8954 7 34C7 35.1046 7.89543 36 9 36Z" fill="white"/>
<path fill-rule="evenodd" clip-rule="evenodd" d="M7.5 50.5H20.5C22.1569 50.5 23.5 51.8431 23.5 53.5V62.5C23.5 64.1569 22.1569 65.5 20.5 65.5H7.5C5.84315 65.5 4.5 64.1569 4.5 62.5V53.5C4.5 51.8431 5.84315 50.5 7.5 50.5ZM7.5 52C6.67157 52 6 52.6716 6 53.5V62.5C6 63.3284 6.67157 64 7.5 64H20.5C21.3284 64 22 63.3284 22 62.5V53.5C22 52.6716 21.3284 52 20.5 52H7.5Z" fill="black" fill-opacity="0.1"/>
<rect x="6" y="53" width="16" height="10" fill="black" fill-opacity="0.2"/>
<path fill-rule="evenodd" clip-rule="evenodd" d="M6 53.5C6 52.6716 6.67157 52 7.5 52H20.5C21.3284 52 22 52.6716 22 53.5V62.5C22 63.3284 21.3284 64 20.5 64H7.5C6.67157 64 6 63.3284 6 62.5V53.5ZM11 58C11 59.1046 10.1046 60 9 60C7.89543 60 7 59.1046 7 58C7 56.8954 7.89543 56 9 56C10.1046 56 11 56.8954 11 58ZM14 60C15.1046 60 16 59.1046 16 58C16 56.8954 15.1046 56 14 56C12.8954 56 12 56.8954 12 58C12 59.1046 12.8954 60 14 60Z" fill="white"/>
<path fill-rule="evenodd" clip-rule="evenodd" d="M7.5 74.5H20.5C22.1569 74.5 23.5 75.8431 23.5 77.5V86.5C23.5 88.1569 22.1569 89.5 20.5 89.5H7.5C5.84315 89.5 4.5 88.1569 4.5 86.5V77.5C4.5 75.8431 5.84315 74.5 7.5 74.5ZM7.5 76C6.67157 76 6 76.6716 6 77.5V86.5C6 87.3284 6.67157 88 7.5 88H20.5C21.3284 88 22 87.3284 22 86.5V77.5C22 76.6716 21.3284 76 20.5 76H7.5Z" fill="black" fill-opacity="0.1"/>
<rect x="6" y="77" width="16" height="10" fill="black" fill-opacity="0.2"/>
<path fill-rule="evenodd" clip-rule="evenodd" d="M7.5 76C6.67157 76 6 76.6716 6 77.5V86.5C6 87.3284 6.67157 88 7.5 88H20.5C21.3284 88 22 87.3284 22 86.5V77.5C22 76.6716 21.3284 76 20.5 76H7.5ZM9 84C10.1046 84 11 83.1046 11 82C11 80.8954 10.1046 80 9 80C7.89543 80 7 80.8954 7 82C7 83.1046 7.89543 84 9 84ZM16 82C16 83.1046 15.1046 84 14 84C12.8954 84 12 83.1046 12 82C12 80.8954 12.8954 80 14 80C15.1046 80 16 80.8954 16 82ZM19 84C20.1046 84 21 83.1046 21 82C21 80.8954 20.1046 80 19 80C17.8954 80 17 80.8954 17 82C17 83.1046 17.8954 84 19 84Z" fill="white"/>
<path fill-rule="evenodd" clip-rule="evenodd" d="M7.5 98.5H20.5C22.1569 98.5 23.5 99.8431 23.5 101.5V110.5C23.5 112.157 22.1569 113.5 20.5 113.5H7.5C5.84315 113.5 4.5 112.157 4.5 110.5V101.5C4.5 99.8431 5.84315 98.5 7.5 98.5ZM7.5 100C6.67157 100 6 100.672 6 101.5V110.5C6 111.328 6.67157 112 7.5 112H20.5C21.3284 112 22 111.328 22 110.5V101.5C22 100.672 21.3284 100 20.5 100H7.5Z" fill="black" fill-opacity="0.1"/>
<rect x="6" y="101" width="16" height="10" fill="black" fill-opacity="0.2"/>
<path d="M6 101.5C6 100.672 6.67157 100 7.5 100H20.5C21.3284 100 22 100.672 22 101.5V110.5C22 111.328 21.3284 112 20.5 112H7.5C6.67157 112 6 111.328 6 110.5V101.5Z" fill="white"/>
<path fill-rule="evenodd" clip-rule="evenodd" d="M31.5 26.5H44.5C46.1569 26.5 47.5 27.8431 47.5 29.5V38.5C47.5 40.1569 46.1569 41.5 44.5 41.5H31.5C29.8431 41.5 28.5 40.1569 28.5 38.5V29.5C28.5 27.8431 29.8431 26.5 31.5 26.5ZM31.5 28C30.6716 28 30 28.6716 30 29.5V38.5C30 39.3284 30.6716 40 31.5 40H44.5C45.3284 40 46 39.3284 46 38.5V29.5C46 28.6716 45.3284 28 44.5 28H31.5Z" fill="black" fill-opacity="0.1"/>
<rect x="30" y="29" width="16" height="10" fill="black" fill-opacity="0.2"/>
<path fill-rule="evenodd" clip-rule="evenodd" d="M31.5 28C30.6716 28 30 28.6716 30 29.5V38.5C30 39.3284 30.6716 40 31.5 40H44.5C45.3284 40 46 39.3284 46 38.5V29.5C46 28.6716 45.3284 28 44.5 28H31.5ZM33 36C34.1046 36 35 35.1046 35 34C35 32.8954 34.1046 32 33 32C31.8954 32 31 32.8954 31 34C31 35.1046 31.8954 36 33 36Z" fill="white"/>
<path fill-rule="evenodd" clip-rule="evenodd" d="M31.5 50.5H44.5C46.1569 50.5 47.5 51.8431 47.5 53.5V62.5C47.5 64.1569 46.1569 65.5 44.5 65.5H31.5C29.8431 65.5 28.5 64.1569 28.5 62.5V53.5C28.5 51.8431 29.8431 50.5 31.5 50.5ZM31.5 52C30.6716 52 30 52.6716 30 53.5V62.5C30 63.3284 30.6716 64 31.5 64H44.5C45.3284 64 46 63.3284 46 62.5V53.5C46 52.6716 45.3284 52 44.5 52H31.5Z" fill="black" fill-opacity="0.1"/>
<rect x="30" y="53" width="16" height="10" fill="black" fill-opacity="0.2"/>
<path fill-rule="evenodd" clip-rule="evenodd" d="M30 53.5C30 52.6716 30.6716 52 31.5 52H44.5C45.3284 52 46 52.6716 46 53.5V62.5C46 63.3284 45.3284 64 44.5 64H31.5C30.6716 64 30 63.3284 30 62.5V53.5ZM35 58C35 59.1046 34.1046 60 33 60C31.8954 60 31 59.1046 31 58C31 56.8954 31.8954 56 33 56C34.1046 56 35 56.8954 35 58ZM38 60C39.1046 60 40 59.1046 40 58C40 56.8954 39.1046 56 38 56C36.8954 56 36 56.8954 36 58C36 59.1046 36.8954 60 38 60Z" fill="white"/>
<path fill-rule="evenodd" clip-rule="evenodd" d="M31.5 74.5H44.5C46.1569 74.5 47.5 75.8431 47.5 77.5V86.5C47.5 88.1569 46.1569 89.5 44.5 89.5H31.5C29.8431 89.5 28.5 88.1569 28.5 86.5V77.5C28.5 75.8431 29.8431 74.5 31.5 74.5ZM31.5 76C30.6716 76 30 76.6716 30 77.5V86.5C30 87.3284 30.6716 88 31.5 88H44.5C45.3284 88 46 87.3284 46 86.5V77.5C46 76.6716 45.3284 76 44.5 76H31.5Z" fill="black" fill-opacity="0.1"/>
<rect x="30" y="77" width="16" height="10" fill="black" fill-opacity="0.2"/>
<path fill-rule="evenodd" clip-rule="evenodd" d="M31.5 76C30.6716 76 30 76.6716 30 77.5V86.5C30 87.3284 30.6716 88 31.5 88H44.5C45.3284 88 46 87.3284 46 86.5V77.5C46 76.6716 45.3284 76 44.5 76H31.5ZM33 84C34.1046 84 35 83.1046 35 82C35 80.8954 34.1046 80 33 80C31.8954 80 31 80.8954 31 82C31 83.1046 31.8954 84 33 84ZM40 82C40 83.1046 39.1046 84 38 84C36.8954 84 36 83.1046 36 82C36 80.8954 36.8954 80 38 80C39.1046 80 40 80.8954 40 82ZM43 84C44.1046 84 45 83.1046 45 82C45 80.8954 44.1046 80 43 80C41.8954 80 41 80.8954 41 82C41 83.1046 41.8954 84 43 84Z" fill="white"/>
<path fill-rule="evenodd" clip-rule="evenodd" d="M31.5 98.5H44.5C46.1569 98.5 47.5 99.8431 47.5 101.5V110.5C47.5 112.157 46.1569 113.5 44.5 113.5H31.5C29.8431 113.5 28.5 112.157 28.5 110.5V101.5C28.5 99.8431 29.8431 98.5 31.5 98.5ZM31.5 100C30.6716 100 30 100.672 30 101.5V110.5C30 111.328 30.6716 112 31.5 112H44.5C45.3284 112 46 111.328 46 110.5V101.5C46 100.672 45.3284 100 44.5 100H31.5Z" fill="black" fill-opacity="0.1"/>
<rect x="30" y="101" width="16" height="10" fill="black" fill-opacity="0.2"/>
<path d="M30 101.5C30 100.672 30.6716 100 31.5 100H44.5C45.3284 100 46 100.672 46 101.5V110.5C46 111.328 45.3284 112 44.5 112H31.5C30.6716 112 30 111.328 30 110.5V101.5Z" fill="white"/>
<path fill-rule="evenodd" clip-rule="evenodd" d="M78 113.5V114.5C78 115.328 78.6716 116 79.5 116H92.5C93.3284 116 94 115.328 94 114.5V105.5C94 104.672 93.3284 104 92.5 104H91.5V110.5C91.5 112.157 90.1569 113.5 88.5 113.5H78Z" fill="white"/>
<path fill-rule="evenodd" clip-rule="evenodd" d="M88.5 98.5H75.5C73.8431 98.5 72.5 99.8431 72.5 101.5V110.5C72.5 112.157 73.8431 113.5 75.5 113.5H76.5V114.5C76.5 116.157 77.8431 117.5 79.5 117.5H92.5C94.1569 117.5 95.5 116.157 95.5 114.5V105.5C95.5 103.843 94.1569 102.5 92.5 102.5H91.5V101.5C91.5 99.8431 90.1569 98.5 88.5 98.5ZM90 104V102.5V101.5C90 100.672 89.3284 100 88.5 100H75.5C74.6716 100 74 100.672 74 101.5V110.5C74 111.328 74.6716 112 75.5 112H76.5H78H88.5C89.3284 112 90 111.328 90 110.5V104ZM78 113.5H88.5C90.1569 113.5 91.5 112.157 91.5 110.5V104H92.5C93.3284 104 94 104.672 94 105.5V114.5C94 115.328 93.3284 116 92.5 116H79.5C78.6716 116 78 115.328 78 114.5V113.5Z" fill="black" fill-opacity="0.1"/>
<rect x="74" y="101" width="16" height="10" fill="black" fill-opacity="0.2"/>
<path d="M74 101.5C74 100.672 74.6716 100 75.5 100H88.5C89.3284 100 90 100.672 90 101.5V110.5C90 111.328 89.3284 112 88.5 112H75.5C74.6716 112 74 111.328 74 110.5V101.5Z" fill="white"/>
</svg>
