<svg width="16" height="16" viewBox="0 0 16 16" fill="none" xmlns="http://www.w3.org/2000/svg">
<path d="M15.7656 6.6729C16.1735 6.25591 16.0355 5.84191 15.4566 5.75391L10.6288 5.01792L8.45284 0.395994C8.20485 -0.131998 7.79887 -0.131998 7.54988 0.395994L5.37197 5.01792L0.543156 5.75391C-0.0348209 5.84191 -0.173815 6.25591 0.234169 6.6729L3.74603 10.2598L2.91306 15.3488C2.81807 15.9238 3.16105 16.1638 3.67303 15.8818L7.0709 14.0098C7.58188 13.7288 8.41985 13.7288 8.92983 14.0098L12.3277 15.8818C12.8397 16.1638 13.1817 15.9238 13.0867 15.3488L13.0847 15.3348L12.2527 10.2598L15.7656 6.6729Z" fill="#FEBA57"/>
</svg>
